<?xml version="1.0" encoding="iso-8859-1"?>
<!-- Uploaded to: SVG Repo, www.svgrepo.com, Generator: SVG Repo Mixer Tools -->
<svg height="800px" width="800px" version="1.1" id="Layer_1" xmlns="http://www.w3.org/2000/svg" xmlns:xlink="http://www.w3.org/1999/xlink" 
	 viewBox="0 0 392.598 392.598" xml:space="preserve">
<path style="fill:#FFFFFF;" d="M196.331,21.786c-36.719,0-66.586,29.931-66.586,66.586s29.931,66.586,66.586,66.586
	s66.586-29.931,66.586-66.586S233.115,21.786,196.331,21.786z"/>
<path style="fill:#FFC10D;" d="M196.331,133.236c-24.76,0-44.8-20.105-44.8-44.8s20.105-44.8,44.8-44.8s44.8,20.105,44.8,44.8
	S221.091,133.236,196.331,133.236z"/>
<path style="fill:#194F82;" d="M196.267,176.873c48.743,0,88.372-39.628,88.372-88.372C284.638,39.693,245.01,0,196.267,0
	s-88.372,39.628-88.372,88.372S147.523,176.873,196.267,176.873z M196.267,21.786c36.719,0,66.586,29.931,66.586,66.586
	s-29.931,66.586-66.586,66.586s-66.586-29.931-66.586-66.586S159.547,21.786,196.267,21.786z"/>
<path style="fill:#56ACE0;" d="M261.107,232.404l-55.079,109.705c-2.715,5.818-13.059,10.214-19.459,0l-55.079-109.705
	c-23.661,10.279-43.96,25.988-59.992,45.123h32.711c6.012,0,10.925,4.849,10.925,10.925c0,6.012-4.848,10.925-10.925,10.925H56.178
	c-2.133,3.62-4.073,7.434-5.947,11.184h20.622c6.012,0,10.925,4.848,10.925,10.925c0,6.012-4.848,10.925-10.925,10.925H41.503
	c-3.943,12.283-6.594,25.212-7.434,38.335h324.525C354.457,310.303,316.638,256.646,261.107,232.404z"/>
<polygon style="fill:#FFC10D;" points="210.166,285.285 205.446,226.004 196.008,217.665 187.152,225.551 182.432,285.349 
	196.267,312.954 "/>
<path style="fill:#194F82;" d="M259.62,208.291c-5.172-1.939-10.99,0.388-13.511,5.301l-17.067,34.004l-2.263-28.251
	c-0.323-3.491-2.327-6.465-5.236-8.275l-18.295-16.291c-4.073-3.685-10.343-3.685-14.481,0l-19.394,17.261
	c-2.069,1.875-3.426,4.461-3.62,7.24l-2.263,28.251l-17.067-34.069c-2.457-4.913-8.339-7.24-13.511-5.301
	C60.509,234.796,11.83,304.42,11.83,381.673c0,6.012,4.848,10.925,10.925,10.925h347.087c6.012,0,10.925-4.848,10.925-10.925
	C380.703,304.42,332.024,234.796,259.62,208.291z M187.152,225.551l8.857-7.887l9.438,8.404l4.655,59.281l-13.834,27.604
	l-13.834-27.604L187.152,225.551z M34.004,370.747c0.905-13.188,3.491-26.053,7.434-38.335h29.349
	c6.012,0,10.925-4.848,10.925-10.925s-4.848-10.925-10.925-10.925H50.166c1.875-3.814,3.879-7.564,5.947-11.184h47.968
	c6.012,0,10.925-4.848,10.925-10.925c0-6.012-4.848-10.925-10.925-10.925H71.499c15.968-19.135,36.331-34.844,59.992-45.123
	l55.079,109.705c6.4,10.408,17.067,5.689,19.459,0l55.079-109.705c55.531,24.178,93.349,77.899,97.422,138.343L34.004,370.747
	L34.004,370.747z"/>
</svg>